# xmcd
#
# Track frame offsets:
#	150
#	12918
#	31747
#	48602
#	69708
#	81479
#	93765
#	109261
#	123292
#	138904
#	151212
#	162560
#	175855
#	187513
#	202344
#	219691
#	238832
#	258448
#	276600
#	294985
#	306955
#	321094
#	340994
#
# Disc length: 4771 seconds
#
# Revision: 23
# Processed by: cddbd v1.5.2PL0 Copyright (c) Steve Scherf et al.
# Submitted via: EasyCDDAExtractor 15.3.0.1
#
DISCID=5812a117
DTITLE=Cher - The Very Best Of Cher - CD 2
DYEAR=2003
DGENRE=Pop/Rock
TTITLE0=The Shoop Shoop Song (It's In His Kiss)
TTITLE1=Heart Of Stone
TTITLE2=Dov'e L'amore (Emilio Estefan Jnr. Mix)
TTITLE3=The Music's No Good Without You
TTITLE4=Gypsys, Tramps and Thieves
TTITLE5=Half Breed
TTITLE6=Dark Lady
TTITLE7=I Got You Babe (Sonny and Cher)
TTITLE8=The Beat Goes On (Sonny and Cher)
TTITLE9=Bang Bang (My Baby Shot Me Down) (Original Version)
TTITLE10=The Way Of Love
TTITLE11=All I Really Want To Do
TTITLE12=Train Of Thought
TTITLE13=A Cowboy's Work Is Never Done (Sonny and Cher)
TTITLE14=We All Sleep Alone
TTITLE15=Love Hurts
TTITLE16=Not Enough Love In The World
TTITLE17=Born With The Hunger
TTITLE18=After All (Cher and Peter Cetera)
TTITLE19=All I Ever Need Is You (Sonny and Cher)
TTITLE20=Baby Don't Go (Sonny and Cher)
TTITLE21=Dead Ringer For Love (Meat Loaf Featuring Cher)
TTITLE22=Bang Bang (My Baby Shot Me Down) (Produced By Jon Bon Jovi, Richie Sa
TTITLE22=mbora And Desmond Child)
EXTD=
EXTT0=
EXTT1=
EXTT2=
EXTT3=
EXTT4=
EXTT5=
EXTT6=
EXTT7=
EXTT8=
EXTT9=
EXTT10=
EXTT11=
EXTT12=
EXTT13=
EXTT14=
EXTT15=
EXTT16=
EXTT17=
EXTT18=
EXTT19=
EXTT20=
EXTT21=
EXTT22=produced by Jon Bon Jovi, Richie Sambora and Desmond Child
PLAYORDER=
